<svg width="1061" height="493" viewBox="0 0 1061 493" fill="none" xmlns="http://www.w3.org/2000/svg"><path d="M338.031 99.013v42.94c0 4.52.112 7.649.339 9.379.226 1.733.713 3.203 1.469 4.407.904 1.508 1.995 2.525 3.277 3.051 1.278.529 3.729 1.094 7.345 1.695 3.312.452 4.972 2.337 4.972 5.65 0 4.068-2.186 6.102-6.554 6.102h-48.59c-4.372 0-6.555-2.034-6.555-6.102 0-2.108.526-3.538 1.582-4.294 1.053-.752 3.238-1.356 6.555-1.808 1.956-.3 3.577-.752 4.858-1.356 1.278-.6 2.261-1.543 2.938-2.825.678-1.278 1.13-3.051 1.355-5.311.227-2.26.339-5.121.339-8.588V51.779c0-4.52-.112-7.645-.339-9.379-.226-1.73-.717-3.199-1.469-4.407-1.056-1.504-2.225-2.52-3.503-3.05-1.282-.527-3.729-1.092-7.345-1.696-3.316-.3-4.973-2.182-4.973-5.65 0-4.068 2.183-6.102 6.555-6.102h48.59c4.368 0 6.554 2.034 6.554 6.102 0 2.112-.529 3.542-1.582 4.294-1.056.756-3.164 1.356-6.328 1.808-1.96.304-3.58.756-4.858 1.356-1.282.604-2.261 1.547-2.938 2.825-.678 1.282-1.13 3.051-1.355 5.311-.227 2.26-.339 5.124-.339 8.588v32.318h52.657V51.78c0-4.368-.112-7.458-.339-9.266-.226-1.808-.717-3.312-1.469-4.52-.904-1.504-1.999-2.52-3.277-3.05-1.281-.527-3.729-1.092-7.345-1.696-3.315-.3-4.972-2.182-4.972-5.65 0-4.068 2.182-6.102 6.554-6.102h48.59c4.368 0 6.554 2.034 6.554 6.102 0 2.112-.529 3.542-1.582 4.294-1.056.756-3.241 1.356-6.554 1.808-1.96.304-3.58.756-4.858 1.356-1.282.604-2.261 1.547-2.938 2.825-.678 1.282-1.13 3.051-1.356 5.311-.226 2.26-.339 5.124-.339 8.588v90.174c0 4.52.113 7.649.339 9.379.227 1.733.714 3.203 1.47 4.407 1.052 1.508 2.221 2.525 3.503 3.051 1.278.529 3.729 1.094 7.345 1.695 3.312.452 4.972 2.337 4.972 5.65 0 4.068-2.186 6.102-6.554 6.102h-48.59c-4.372 0-6.554-2.034-6.554-6.102 0-2.108.525-3.538 1.582-4.294 1.052-.752 3.164-1.356 6.328-1.808 1.956-.3 3.577-.752 4.858-1.356 1.278-.6 2.26-1.543 2.938-2.825.678-1.278 1.13-3.051 1.355-5.311.227-2.26.339-5.121.339-8.588v-42.94h-52.657zm160.457-25.538c7.381 0 14.273 1.282 20.68 3.842 6.403 2.563 11.979 6.102 16.725 10.622 4.746 4.52 8.436 9.87 11.072 16.046 2.635 6.18 3.955 12.882 3.955 20.114 0 5.876-1.168 11.791-3.502 17.741a49.692 49.692 0 0 1-10.057 15.933c-10.248 11.151-23.504 16.724-39.778 16.724-6.631 0-12.582-.942-17.854-2.825-5.275-1.882-10.322-4.781-15.142-8.701-6.028-4.972-10.7-10.848-14.013-17.628-3.315-6.78-4.972-13.86-4.972-21.244 0-7.232 1.356-13.934 4.068-20.114 2.712-6.176 6.44-11.526 11.187-16.046 4.747-4.52 10.318-8.059 16.725-10.622 6.404-2.56 13.371-3.842 20.906-3.842zm-5.066 12.204c-7.205 0-13.059 2.631-17.561 7.89-4.504 5.257-6.753 12.09-6.753 20.501 0 10.068 2.323 19.606 6.978 28.618 3.303 6.31 7.279 11.155 11.934 14.535 4.652 3.383 9.682 5.071 15.084 5.071 7.205 0 13.055-2.666 17.559-7.999 4.502-5.332 6.754-12.208 6.754-20.619 0-6.459-.9-12.582-2.701-18.366-1.801-5.784-4.28-10.852-7.43-15.209-3.152-4.358-6.793-7.85-10.918-10.478-4.13-2.626-8.444-3.944-12.946-3.944zm101.568 59.212c0 3.316.113 5.954.339 7.91.227 1.96.791 3.503 1.695 4.633s2.147 1.921 3.729 2.373c1.582.452 3.729.904 6.44 1.356 3.312.452 4.973 2.338 4.973 5.65 0 3.616-1.886 5.424-5.65 5.424H564.48c-1.808 0-3.241-.487-4.294-1.469-1.056-.978-1.582-2.295-1.582-3.955 0-1.957.487-3.312 1.469-4.068.979-.752 2.974-1.43 5.989-2.034 3.012-.601 5.046-1.921 6.102-3.955 1.053-2.034 1.582-5.989 1.582-11.865V97.883c0-4.068-.643-6.702-1.921-7.91-1.281-1.204-4.259-1.882-8.927-2.034-5.124 0-7.684-2.034-7.684-6.102 0-1.656.452-3.012 1.355-4.068.904-1.053 2.561-2.108 4.973-3.164 5.271-2.409 9.604-5.233 12.994-8.475 3.391-3.238 6.363-7.268 8.928-12.09 1.355-2.109 3.312-3.165 5.876-3.165 3.764 0 5.649 2.337 5.649 7.006v17.854h15.368c2.712 0 4.633.452 5.763 1.356 1.131.904 1.695 2.412 1.695 4.52v2.938c.3 3.768-1.208 5.65-4.52 5.65a8.842 8.842 0 0 1-1.243-.113 33.693 33.693 0 0 1-1.921-.339c-2.564-.752-4.333-1.165-5.312-1.243-1.394-.107-2.788-.22-4.181-.339l-5.65-.226v56.952h.002zm67.8-15.29c-4.824 2.104-8.101 4.057-9.831 5.858-1.734 1.804-2.6 4.135-2.6 6.988 0 2.104.601 4.096 1.809 5.975 1.204 1.879 2.786 3.567 4.746 5.071 1.956 1.504 4.216 2.666 6.779 3.492a25.621 25.621 0 0 0 7.91 1.239c3.616 0 7.571-.791 11.865-2.373 4.294-1.582 8.171-3.651 11.639-6.215a90.47 90.47 0 0 1 2.6-1.582c.525-.3 1.165-.452 1.921-.452 1.204 0 2.26.417 3.164 1.243.903.83 1.355 1.847 1.355 3.051 0 1.808-.981 3.888-2.938 6.24-1.96 2.352-4.672 4.827-8.137 7.422-3.919 2.751-8.326 4.93-13.221 6.533-4.897 1.6-9.831 2.405-14.803 2.405-6.328 0-12.169-1.243-17.516-3.729a43.757 43.757 0 0 1-14.012-10.283c-3.993-4.368-7.119-9.527-9.379-15.481-2.26-5.95-3.39-12.391-3.39-19.323 0-7.38 1.204-14.273 3.616-20.679 2.408-6.402 5.763-11.939 10.057-16.61 4.294-4.669 9.379-8.324 15.255-10.962 5.876-2.634 12.204-3.955 18.984-3.955 4.668 0 9.04.752 13.107 2.257 4.068 1.504 7.606 3.531 10.622 6.084 3.013 2.557 5.424 5.523 7.232 8.902 1.808 3.383 2.712 7.027 2.712 10.933 0 3.905-.943 7.062-2.825 9.467-1.886 2.405-5.011 4.583-9.379 6.536l-27.342 11.948zm8.135-16.802c3.464-1.656 5.837-3.199 7.119-4.633 1.278-1.43 1.921-3.425 1.921-5.989 0-4.368-1.66-8.21-4.972-11.526-3.316-3.312-7.232-4.972-11.753-4.972-6.027 0-10.999 2.6-14.916 7.797-3.919 5.198-5.876 11.865-5.876 20.001 0 2.712.113 5.237.34 7.571.226 2.338.713 4.785 1.469 7.345 1.052-1.956 2.183-3.425 3.39-4.407 1.204-.978 3.391-2.147 6.555-3.503l16.723-7.684zm46.554 59.438c-1.809 0-3.242-.487-4.295-1.469-1.056-.978-1.581-2.295-1.581-3.955 0-1.957.487-3.312 1.469-4.068.978-.752 2.973-1.43 5.989-2.034 3.163-.601 5.271-1.957 6.327-4.068 1.053-2.108 1.582-6.024 1.582-11.752V37.993c0-4.82-1.659-7.232-4.972-7.232-.304 0-1.056.152-2.26.452-1.508.304-2.412.452-2.712.452-1.208 0-2.261-.487-3.164-1.469-.904-.978-1.356-2.069-1.356-3.277 0-3.164 1.809-5.65 5.424-7.458l33.448-17.854c1.505-.6 2.635-.904 3.39-.904 1.205 0 2.261.452 3.164 1.356.904.904 1.356 2.112 1.356 3.616 0 1.66-.339 2.977-1.017 3.955-.679.981-2.373 2.6-5.085 4.86-3.017 2.563-4.521 7.083-4.521 13.56V144.89c0 3.164.113 5.728.339 7.684.227 1.96.714 3.503 1.469 4.633.753 1.13 1.809 1.959 3.164 2.486 1.356.53 3.164 1.017 5.425 1.469 3.312.756 4.972 2.638 4.972 5.65 0 1.66-.53 2.977-1.582 3.955-1.056.982-2.486 1.469-4.294 1.469h-40.679zM128.121 277.023c-3.092 5.043-6.1 10.857-9.027 17.445a265.875 265.875 0 0 0-8.053 20.375 228.336 228.336 0 0 0-6.222 20.982c-1.708 6.996-2.89 13.42-3.538 19.277-.651 4.719-1.67 8.094-3.05 10.125-1.384 2.037-3.458 3.051-6.222 3.051-2.929 0-5.002-1.057-6.223-3.172-1.22-2.113-2.157-6.016-2.806-11.713-.488-5.039-1.628-11.102-3.416-18.178a336.057 336.057 0 0 0-6.222-21.473 287.033 287.033 0 0 0-7.687-20.861c-2.768-6.668-5.451-12.199-8.052-16.592L39.55 361.447c-.328.977-.53 2.074-.61 3.293a45.499 45.499 0 0 0-.122 3.051c0 3.256.732 5.574 2.196 6.953 1.464 1.385 4.308 2.402 8.54 3.051 4.716.488 7.076 2.684 7.076 6.588 0 4.232-3.256 6.344-9.761 6.344H9.05c-5.696 0-8.54-2.199-8.54-6.6 0-2.119.525-3.625 1.586-4.521 1.056-.895 3.21-1.59 6.466-2.078 2.112-.65 3.862-1.383 5.246-2.199 1.38-.816 2.562-1.998 3.538-3.545.976-1.549 1.83-3.463 2.562-5.742.732-2.279 1.502-5.215 2.318-8.803l21.228-98.508c-1.792-1.951-3.336-3.297-4.636-4.029-1.304-.732-2.848-1.102-4.636-1.102-3.092 0-5.696 1.871-7.809 5.611-1.791 2.768-3.092 4.514-3.903 5.246-.816.732-2.036 1.098-3.66 1.098-1.792 0-3.256-.525-4.393-1.586-1.14-1.057-1.708-2.318-1.708-3.781 0-.812.039-1.381.122-1.709.08-.324.446-1.379 1.099-3.172l8.296-23.008c2.112-5.807 6.504-8.711 13.176-8.711 16.265 0 31.88 13.42 46.848 40.26 3.74 6.672 6.79 12.852 9.15 18.543 2.356 5.697 4.594 12.201 6.71 19.52 5.856-16.752 14.557-32.775 26.108-48.066 7.319-10.084 14.067-17.485 20.252-22.205 6.18-4.716 12.116-7.076 17.812-7.076 6.504 0 10.896 3.55 13.176 10.645l6.589 18.88c.812 2.768 1.22 4.635 1.22 5.611 0 1.791-.53 3.256-1.586 4.393-1.061 1.139-2.482 1.707-4.271 1.707-2.604 0-4.8-1.623-6.588-4.879-2.768-5.041-6.02-7.564-9.76-7.564-2.44 0-5.368 1.223-8.784 3.668l21.472 103.639c.648 3.096 1.381 5.664 2.196 7.701.812 2.035 1.746 3.668 2.806 4.887 1.057 1.225 2.398 2.205 4.026 2.936 1.624.732 3.576 1.262 5.856 1.586 4.063.816 6.1 2.936 6.1 6.355 0 4.4-2.848 6.6-8.54 6.6h-51.24c-5.531 0-8.296-2.111-8.296-6.344 0-2.275.61-3.904 1.83-4.879 1.22-.977 3.698-1.709 7.442-2.197 6.016-.488 9.027-3.576 9.027-9.271 0-1.625-.243-3.82-.731-6.588l-16.105-84.427zm83.201 113.704c-4.721 0-7.076-2.195-7.076-6.588 0-2.275.567-3.82 1.708-4.635 1.136-.812 3.496-1.465 7.076-1.953 2.111-.324 3.861-.812 5.245-1.463 1.381-.648 2.44-1.666 3.173-3.051.731-1.381 1.22-3.295 1.464-5.734s.365-5.527.365-9.271v-97.355c0-4.881-.121-8.254-.365-10.127-.244-1.867-.774-3.453-1.586-4.758-1.141-1.625-2.402-2.723-3.782-3.295-1.384-.566-4.026-1.178-7.93-1.828-3.58-.488-5.368-2.521-5.368-6.101 0-4.392 2.355-6.588 7.076-6.588h52.703c4.717 0 7.076 2.196 7.076 6.588 0 2.28-.571 3.824-1.708 4.636-1.14.816-3.5 1.465-7.076 1.951-2.115.328-3.865.816-5.245 1.465-1.385.652-2.44 1.67-3.173 3.051-.731 1.383-1.22 3.293-1.464 5.732-.244 2.441-.366 5.533-.366 9.273v97.355c0 4.879.122 8.258.366 10.125.244 1.873.771 3.459 1.586 4.76 1.137 1.627 2.398 2.725 3.782 3.293 1.38.572 4.026 1.182 7.93 1.83 3.576.488 5.368 2.523 5.368 6.1 0 4.393-2.359 6.588-7.076 6.588h-52.703zm122.24-32.643c0 4.873.122 8.242.366 10.111.244 1.867.771 3.449 1.586 4.75.977 1.625 2.154 2.723 3.538 3.291 1.381.568 4.026 1.174 7.931 1.822 3.576.488 5.367 2.52 5.367 6.092 0 4.385-2.279 6.576-6.832 6.576h-52.703c-4.721 0-7.076-2.195-7.076-6.588 0-2.275.567-3.82 1.708-4.635 1.136-.812 3.496-1.465 7.076-1.953 2.111-.324 3.861-.812 5.245-1.463 1.381-.648 2.44-1.666 3.173-3.051.731-1.381 1.22-3.295 1.464-5.734s.365-5.527.365-9.271v-97.355c0-4.881-.121-8.254-.365-10.127-.244-1.867-.774-3.453-1.586-4.758-1.141-1.625-2.402-2.723-3.782-3.295-1.384-.566-4.026-1.178-7.93-1.828-3.58-.324-5.368-2.357-5.368-6.101 0-4.392 2.355-6.588 7.076-6.588h53.924c12.359 0 22.204 1.098 29.523 3.294 7.32 2.196 13.744 5.898 19.276 11.102 4.716 4.557 8.418 9.924 11.102 16.104 2.685 6.184 4.026 12.689 4.026 19.521 0 8.295-1.914 15.859-5.734 22.691-3.823 6.832-9.313 12.363-16.47 16.592-2.439 1.463-5.124 2.768-8.052 3.904-2.928 1.139-6.916 2.523-11.956 4.148l27.328 36.844c2.275 2.768 4.228 5.043 5.855 6.832 1.624 1.791 3.131 3.256 4.515 4.391 1.38 1.141 2.764 2.037 4.147 2.686 1.38.65 2.967 1.219 4.758 1.707 3.089.816 5.124 1.67 6.101 2.562.976.896 1.464 2.238 1.464 4.025 0 4.232-2.684 6.344-8.052 6.344h-33.916c-6.021 0-9.028-2.84-9.028-8.523.16-2.762-.042-4.916-.61-6.459-.571-1.541-1.993-3.936-4.27-7.184l-23.912-32.887c-1.628-2.111-2.684-3.773-3.172-4.994-.488-1.215-.732-2.555-.732-4.018 0-5.197 3.416-8.609 10.248-10.232 5.692-1.461 10.084-2.922 13.177-4.385 3.088-1.461 5.855-3.572 8.296-6.332 5.855-6.334 8.783-14.617 8.783-24.852 0-5.68-1.014-11.121-3.034-16.316-2.024-5.197-4.896-9.664-8.616-13.4-3.237-3.248-6.92-5.562-11.045-6.943-4.125-1.381-9.345-2.07-15.65-2.07h-7.526v115.953h-.001zm137.616-13.229-6.588 17.08c-1.14 3.256-1.708 5.775-1.708 7.564 0 2.768.732 4.719 2.196 5.855 1.464 1.139 4.309 2.035 8.54 2.684 3.74.488 5.612 2.604 5.612 6.344 0 4.232-2.685 6.344-8.053 6.344h-38.552c-6.18 0-9.271-2.111-9.271-6.344 0-2.111.529-3.66 1.586-4.637 1.06-.975 3.05-1.623 5.978-1.951 4.393-.812 7.725-2.439 10.004-4.879 2.276-2.441 4.553-6.832 6.832-13.178l38.797-101.992c-2.441-6.99-6.346-10.49-11.713-10.49-.651 0-1.304.041-1.952.121-.735.098-1.468.219-2.195.365-.816.164-1.548.287-2.196.367-.652.084-1.22.121-1.708.121-1.792 0-3.256-.609-4.392-1.83-1.141-1.219-1.708-2.721-1.708-4.514 0-2.111.609-3.66 1.83-4.635 1.22-.977 3.781-2.032 7.686-3.173 2.764-.812 5.326-1.746 7.686-2.806 2.356-1.056 5.163-2.562 8.419-4.514 3.74-2.276 6.424-3.74 8.051-4.393 1.625-.647 3.252-.976 4.881-.976 1.787 0 3.332.693 4.635 2.074 1.301 1.384 2.602 3.865 3.904 7.441l45.874 126.392c2.6 7.16 5.123 12.162 7.564 15.006 2.439 2.848 5.855 4.598 10.246 5.246 4.717.488 7.076 2.684 7.076 6.588 0 2.117-.73 3.744-2.195 4.881-1.465 1.139-3.416 1.707-5.855 1.707h-52.461c-2.439 0-4.391-.609-5.855-1.83-1.465-1.219-2.195-2.885-2.195-5.002 0-2.275.566-3.82 1.707-4.635 1.137-.812 3.496-1.465 7.076-1.953 2.275-.324 4.105-1.178 5.49-2.562 1.381-1.379 2.075-3.129 2.075-5.244 0-.812-.207-1.99-.611-3.539a41.083 41.083 0 0 0-1.586-4.758l-6.1-16.348h-46.851v.003zm23.912-63.927-18.056 48.555h35.624l-17.568-48.555z" fill="#fff"/><path d="M700.537 277.023c-3.092 5.043-6.1 10.857-9.028 17.445a265.866 265.866 0 0 0-8.052 20.375 228.243 228.243 0 0 0-6.222 20.982c-1.708 6.996-2.89 13.42-3.538 19.277-.652 4.719-1.67 8.094-3.05 10.125-1.384 2.037-3.458 3.051-6.223 3.051-2.928 0-5.002-1.057-6.222-3.172-1.22-2.113-2.158-6.016-2.806-11.713-.488-5.039-1.628-11.102-3.416-18.178a335.423 335.423 0 0 0-6.223-21.473 287.024 287.024 0 0 0-7.686-20.861c-2.768-6.668-5.452-12.199-8.052-16.592l-18.057 85.156c-.327.977-.529 2.074-.609 3.293a45.672 45.672 0 0 0-.122 3.051c0 3.256.731 5.574 2.196 6.953 1.464 1.385 4.308 2.402 8.539 3.051 4.717.488 7.076 2.684 7.076 6.588 0 4.232-3.256 6.344-9.76 6.344h-37.82c-5.695 0-8.54-2.199-8.54-6.6 0-2.119.526-3.625 1.586-4.521 1.057-.895 3.211-1.59 6.467-2.078 2.111-.65 3.861-1.383 5.246-2.199 1.38-.816 2.562-1.998 3.537-3.545.977-1.549 1.83-3.463 2.562-5.742.732-2.279 1.502-5.215 2.318-8.803l21.228-98.508c-1.792-1.951-3.336-3.297-4.636-4.029-1.304-.732-2.848-1.102-4.636-1.102-3.093 0-5.696 1.871-7.809 5.611-1.792 2.768-3.092 4.514-3.904 5.246-.815.732-2.035 1.098-3.659 1.098-1.792 0-3.256-.525-4.393-1.586-1.14-1.057-1.708-2.318-1.708-3.781 0-.812.038-1.381.122-1.709.08-.324.446-1.379 1.099-3.172l8.296-23.008c2.111-5.807 6.504-8.711 13.176-8.711 16.264 0 31.88 13.42 46.848 40.26 3.74 6.672 6.79 12.852 9.15 18.543 2.355 5.697 4.594 12.201 6.71 19.52 5.855-16.752 14.556-32.775 26.107-48.066 7.32-10.084 14.068-17.485 20.252-22.205 6.181-4.716 12.116-7.076 17.812-7.076 6.504 0 10.896 3.55 13.176 10.645l6.588 18.88c.812 2.768 1.221 4.635 1.221 5.611 0 1.791-.53 3.256-1.586 4.393-1.061 1.139-2.482 1.707-4.271 1.707-2.604 0-4.8-1.623-6.588-4.879-2.768-5.041-6.021-7.564-9.76-7.564-2.44 0-5.368 1.223-8.784 3.668l21.472 103.639c.648 3.096 1.38 5.664 2.196 7.701.812 2.035 1.746 3.668 2.806 4.887 1.057 1.225 2.398 2.205 4.026 2.936 1.624.732 3.576 1.262 5.855 1.586 4.064.816 6.101 2.936 6.101 6.355 0 4.4-2.848 6.6-8.54 6.6h-51.24c-5.532 0-8.296-2.111-8.296-6.344 0-2.275.61-3.904 1.83-4.879 1.22-.977 3.698-1.709 7.442-2.197 6.016-.488 9.027-3.576 9.027-9.271 0-1.625-.244-3.82-.731-6.588l-16.1-84.425z" fill="#fff"/><path d="m812.773 344.855-6.588 17.08c-1.141 3.256-1.708 5.775-1.708 7.564 0 2.768.731 4.719 2.195 5.855 1.464 1.139 4.309 2.035 8.54 2.684 3.74.488 5.612 2.604 5.612 6.344 0 4.232-2.685 6.344-8.052 6.344H774.22c-6.18 0-9.271-2.111-9.271-6.344 0-2.111.53-3.66 1.586-4.637 1.06-.975 3.05-1.623 5.978-1.951 4.393-.812 7.725-2.439 10.005-4.879 2.275-2.441 4.552-6.832 6.831-13.178l38.797-101.992c-2.44-6.99-6.345-10.49-11.713-10.49-.651 0-1.304.041-1.951.121-.652.084-1.385.205-2.196.365-.816.164-1.548.287-2.196.367-.651.084-1.22.121-1.708.121-1.792 0-3.256-.609-4.392-1.83-1.14-1.219-1.708-2.721-1.708-4.514 0-2.111.609-3.66 1.83-4.635 1.22-.977 3.782-2.032 7.686-3.173 2.765-.812 5.326-1.746 7.687-2.806 2.355-1.056 5.162-2.562 8.418-4.514 3.74-2.276 6.424-3.74 8.052-4.393 1.624-.647 3.252-.976 4.88-.976 1.788 0 3.332.693 4.636 2.074 1.301 1.384 2.601 3.865 3.904 7.441l45.872 126.392c2.601 7.16 5.124 12.162 7.564 15.006 2.439 2.848 5.855 4.598 10.247 5.246 4.717.488 7.076 2.684 7.076 6.588 0 2.117-.731 3.744-2.195 4.881-1.465 1.139-3.416 1.707-5.856 1.707h-52.46c-2.44 0-4.392-.609-5.856-1.83-1.464-1.219-2.195-2.885-2.195-5.002 0-2.275.567-3.82 1.708-4.635 1.136-.812 3.496-1.465 7.076-1.953 2.275-.324 4.105-1.178 5.489-2.562 1.381-1.379 2.074-3.129 2.074-5.244 0-.812-.206-1.99-.61-3.539a41.532 41.532 0 0 0-1.586-4.758l-6.1-16.348h-46.85v.003zm23.912-63.927-18.057 48.555h35.624l-17.567-48.555zM968.2 358.084c0 4.873.122 8.242.366 10.111.243 1.867.77 3.449 1.586 4.75.976 1.625 2.153 2.723 3.538 3.291 1.38.568 4.025 1.174 7.93 1.822 3.576.488 5.368 2.52 5.368 6.092 0 4.385-2.28 6.576-6.832 6.576h-52.704c-4.72 0-7.076-2.195-7.076-6.588 0-2.275.568-3.82 1.708-4.635 1.136-.812 3.496-1.465 7.076-1.953 2.112-.324 3.862-.812 5.246-1.463 1.38-.648 2.439-1.666 3.172-3.051.731-1.381 1.22-3.295 1.464-5.734s.366-5.527.366-9.271v-97.355c0-4.881-.122-8.254-.366-10.127-.244-1.867-.774-3.453-1.586-4.758-1.14-1.625-2.402-2.723-3.782-3.295-1.384-.566-4.026-1.178-7.93-1.828-3.58-.324-5.368-2.357-5.368-6.101 0-4.392 2.356-6.588 7.076-6.588h53.924c12.36 0 22.204 1.098 29.524 3.294 7.32 2.196 13.74 5.898 19.28 11.102 4.71 4.557 8.41 9.924 11.1 16.104 2.68 6.184 4.02 12.689 4.02 19.521 0 8.295-1.91 15.859-5.73 22.691-3.82 6.832-9.31 12.363-16.47 16.592-2.44 1.463-5.13 2.768-8.05 3.904-2.93 1.139-6.92 2.523-11.96 4.148l27.33 36.844c2.27 2.768 4.23 5.043 5.86 6.832 1.62 1.791 3.12 3.256 4.51 4.391 1.38 1.141 2.76 2.037 4.15 2.686 1.38.65 2.96 1.219 4.75 1.707 3.09.816 5.13 1.67 6.11 2.562.97.896 1.46 2.238 1.46 4.025 0 4.232-2.68 6.344-8.05 6.344h-33.92c-6.02 0-9.03-2.84-9.03-8.523.16-2.762-.04-4.916-.61-6.459-.57-1.541-1.99-3.936-4.27-7.184l-23.909-32.887c-1.628-2.111-2.684-3.773-3.172-4.994-.488-1.215-.731-2.555-.731-4.018 0-5.197 3.416-8.609 10.248-10.232 5.691-1.461 10.084-2.922 13.176-4.385 3.088-1.461 5.858-3.572 8.298-6.332 5.85-6.334 8.78-14.617 8.78-24.852 0-5.68-1.01-11.121-3.03-16.316-2.03-5.197-4.9-9.664-8.62-13.4-3.235-3.248-6.919-5.562-11.044-6.943-4.125-1.381-9.345-2.07-15.65-2.07h-7.525v115.953h-.001z" fill="#fff"/><path d="M353.745 441.133h31.932l8.991-26.662 10.23 26.351h30.382l-22.322 20.462 8.992 29.451-26.662-17.361-25.732 16.432 9.301-28.212-25.112-20.461zm89.595 0h31.931l8.991-26.662 10.231 26.351h30.382l-22.322 20.462 8.992 29.451-26.662-17.361-25.732 16.432 9.301-28.212-25.112-20.461zm89.596 0h31.932l8.99-26.662 10.23 26.351h30.383l-22.322 20.462 8.99 29.451-26.66-17.361-25.732 16.432 9.3-28.212-25.111-20.461zm89.553 0h31.931l8.991-26.662 10.23 26.351h30.383l-22.322 20.462 8.99 29.451-26.66-17.361-25.733 16.432 9.301-28.212-25.111-20.461z" fill="#fff" stroke="#fff" stroke-width="3" stroke-miterlimit="10" stroke-linecap="round" stroke-linejoin="round"/><path d="m352.481 466.606-14.21-14.21H.691v14.21h351.79zm350.375 0 14.21-14.21h343.004v14.21H702.856z" fill="#fff"/></svg>